<?xml version="1.0" encoding="utf-8"?>
<!-- Generator: Adobe Illustrator 27.8.0, SVG Export Plug-In . SVG Version: 6.00 Build 0)  -->
<svg version="1.1" id="Layer_1" xmlns="http://www.w3.org/2000/svg" xmlns:xlink="http://www.w3.org/1999/xlink" x="0px" y="0px"
	 viewBox="0 0 332.4 287" style="enable-background:new 0 0 332.4 287;" xml:space="preserve">
<style type="text/css">
	.st0{fill:#FFFFFF;}
</style>
<g>
	<path d="M253.3,8h46l-101,115l118,156h-92.6l-72.5-94.8l-83,94.8h-46l107-123L16.2,8h94.9l65.5,86.6L253.3,8z M237.2,252h25.5
		L97.7,34H70.3L237.2,252z"/>
	<path class="st0" d="M299.3,8l-101,115l118,156h-92.6l-72.5-94.8l-83,94.8h-46l107-123L16.2,8h94.9l65.5,86.6L253.3,8H299.3
		 M237.2,252h25.5L97.7,34H70.3L237.2,252 M316.9,0h-17.7h-46h-3.6l-2.4,2.7L177.1,82L117.5,3.2L115.1,0h-4H16.2H0l9.8,12.9
		l109,142.8L16.1,273.7L4.6,287h17.6h46h3.6l2.4-2.7l76.6-87.4l66.6,87l2.4,3.1h4h92.6h16.1l-9.7-12.8L208.6,123.4l96.7-110.1
		L316.9,0L316.9,0z M86.5,42h7.2l152.9,202h-5.5L86.5,42L86.5,42z"/>
</g>
</svg>
