<?xml version="1.0" encoding="utf-8"?>
<!-- Generator: Adobe Illustrator 27.8.0, SVG Export Plug-In . SVG Version: 6.00 Build 0)  -->
<svg version="1.1" id="Layer_1" xmlns="http://www.w3.org/2000/svg" xmlns:xlink="http://www.w3.org/1999/xlink" x="0px" y="0px"
	 viewBox="0 0 70.8 70.8" style="enable-background:new 0 0 70.8 70.8;" xml:space="preserve">
<style type="text/css">
	.st0{fill:#FFFFFF;}
</style>
<g>
	<path d="M35.4,5C18.6,5,5,18.6,5,35.4s13.6,30.4,30.4,30.4s30.4-13.6,30.4-30.4S52.2,5,35.4,5z M50.3,25.8l-5,23.5
		C45,51,44,51.4,42.6,50.6L35,45l-3.6,3.6c-0.4,0.4-0.8,0.8-1.5,0.8c-1,0-0.8-0.4-1.2-1.3l-2.6-8.5l-7.5-2.3
		c-1.6-0.5-1.6-1.6,0.4-2.4l29.3-11.3C49.6,22.9,50.8,23.8,50.3,25.8z"/>
	<path class="st0" d="M35.4,5c16.8,0,30.4,13.6,30.4,30.4S52.2,65.8,35.4,65.8S5,52.2,5,35.4S18.6,5,35.4,5 M29.8,49.3
		c0.8,0,1.1-0.3,1.5-0.8L35,45l7.6,5.6c0.5,0.3,0.9,0.4,1.2,0.4c0.8,0,1.3-0.5,1.5-1.7l5-23.5c0.4-1.6-0.3-2.6-1.3-2.6
		c-0.3,0-0.5,0.1-0.8,0.2L18.9,34.8c-2,0.8-2,1.9-0.4,2.4l7.5,2.3l2.6,8.5C29,49,28.8,49.3,29.8,49.3 M35.4,0C15.9,0,0,15.9,0,35.4
		s15.9,35.4,35.4,35.4s35.4-15.9,35.4-35.4S54.9,0,35.4,0L35.4,0z M30.2,35.8l14.1-5.4l-2.8,13.2L38,41l-3.4-2.5l-2.7,2.7l-0.9-3.1
		L30.2,35.8L30.2,35.8z"/>
</g>
</svg>
